<svg width="37" height="42" fill="none" xmlns="http://www.w3.org/2000/svg"><g filter="url(#a)"><path d="M15.643 14.333v1.31A2.857 2.857 0 0 0 18.5 18.5v0a2.857 2.857 0 0 0 2.857-2.857v-1.31m-5.714 0v-.37c0-.642-.328-1.228-.762-1.7A5.27 5.27 0 0 1 13.5 8.685c0-2.864 2.239-5.185 5-5.185s5 2.321 5 5.185a5.27 5.27 0 0 1-1.38 3.578c-.435.472-.763 1.058-.763 1.7v.37m-5.714 0h5.714" stroke="#FFD147" stroke-width="1.5" stroke-linecap="round" stroke-linejoin="round"/></g><defs><filter id="a" x="-3.5" y="-1" width="44" height="44" filterUnits="userSpaceOnUse" color-interpolation-filters="sRGB"><feFlood flood-opacity="0" result="BackgroundImageFix"/><feColorMatrix in="SourceAlpha" values="0 0 0 0 0 0 0 0 0 0 0 0 0 0 0 0 0 0 127 0" result="hardAlpha"/><feMorphology radius="4" in="SourceAlpha" result="effect1_dropShadow_319_1215"/><feOffset dy="4"/><feGaussianBlur stdDeviation="3"/><feColorMatrix values="0 0 0 0 1 0 0 0 0 0.819608 0 0 0 0 0.278431 0 0 0 0.16 0"/><feBlend in2="BackgroundImageFix" result="effect1_dropShadow_319_1215"/><feColorMatrix in="SourceAlpha" values="0 0 0 0 0 0 0 0 0 0 0 0 0 0 0 0 0 0 127 0" result="hardAlpha"/><feMorphology radius="3" in="SourceAlpha" result="effect2_dropShadow_319_1215"/><feOffset dy="10"/><feGaussianBlur stdDeviation="7.5"/><feColorMatrix values="0 0 0 0 1 0 0 0 0 0.819608 0 0 0 0 0.278431 0 0 0 0.16 0"/><feBlend in2="effect1_dropShadow_319_1215" result="effect2_dropShadow_319_1215"/><feBlend in="SourceGraphic" in2="effect2_dropShadow_319_1215" result="shape"/></filter></defs></svg>