<svg width="21" height="20" fill="none" xmlns="http://www.w3.org/2000/svg"><path d="M10.704 8.182v3.873h5.492c-.241 1.245-.965 2.3-2.05 3.009l3.311 2.518c1.93-1.746 3.043-4.31 3.043-7.355 0-.709-.065-1.39-.186-2.045h-9.61Z" fill="#4285F4"/><path d="m4.985 11.903-.747.56-2.643 2.019A10.225 10.225 0 0 0 10.704 20c2.755 0 5.065-.89 6.753-2.418l-3.312-2.518c-.909.6-2.068.963-3.441.963-2.653 0-4.907-1.754-5.714-4.118l-.005-.006Z" fill="#34A853"/><path d="M1.595 5.518a9.717 9.717 0 0 0 0 8.964c0 .009 3.395-2.582 3.395-2.582a5.884 5.884 0 0 1-.325-1.9c0-.664.12-1.3.325-1.9L1.595 5.518Z" fill="#FBBC05"/><path d="M10.704 3.982c1.503 0 2.839.509 3.905 1.49l2.923-2.863C15.76.991 13.459 0 10.704 0a10.21 10.21 0 0 0-9.11 5.518L4.99 8.1c.807-2.364 3.061-4.118 5.714-4.118Z" fill="#EA4335"/></svg>