<svg width="39" height="40" fill="none" xmlns="http://www.w3.org/2000/svg"><g filter="url(#a)"><path d="m20.333 5.833-6.914 6.915a2 2 0 0 0-.586 1.414v.505a2 2 0 0 0 2 2h.505a2 2 0 0 0 1.414-.586l6.915-6.914m-3.334-3.334 1.086-1.085a2 2 0 0 1 2.828 0l.505.504a2 2 0 0 1 0 2.829l-1.085 1.086m-3.334-3.334 3.334 3.334" stroke="#BD9AF8" stroke-width="1.5" stroke-linecap="round" stroke-linejoin="round"/></g><defs><filter id="a" x="-2.5" y="-2" width="44" height="44" filterUnits="userSpaceOnUse" color-interpolation-filters="sRGB"><feFlood flood-opacity="0" result="BackgroundImageFix"/><feColorMatrix in="SourceAlpha" values="0 0 0 0 0 0 0 0 0 0 0 0 0 0 0 0 0 0 127 0" result="hardAlpha"/><feMorphology radius="4" in="SourceAlpha" result="effect1_dropShadow_319_1188"/><feOffset dy="4"/><feGaussianBlur stdDeviation="3"/><feColorMatrix values="0 0 0 0 0.741176 0 0 0 0 0.603922 0 0 0 0 0.972549 0 0 0 0.16 0"/><feBlend in2="BackgroundImageFix" result="effect1_dropShadow_319_1188"/><feColorMatrix in="SourceAlpha" values="0 0 0 0 0 0 0 0 0 0 0 0 0 0 0 0 0 0 127 0" result="hardAlpha"/><feMorphology radius="3" in="SourceAlpha" result="effect2_dropShadow_319_1188"/><feOffset dy="10"/><feGaussianBlur stdDeviation="7.5"/><feColorMatrix values="0 0 0 0 0.741176 0 0 0 0 0.603922 0 0 0 0 0.972549 0 0 0 0.16 0"/><feBlend in2="effect1_dropShadow_319_1188" result="effect2_dropShadow_319_1188"/><feBlend in="SourceGraphic" in2="effect2_dropShadow_319_1188" result="shape"/></filter></defs></svg>